<svg width="27" height="27" viewBox="0 0 27 27" fill="none" xmlns="http://www.w3.org/2000/svg">
<path d="M1 21.0005V24.0005C1 25.1051 1.89543 26.0005 3 26.0005H24C25.1046 26.0005 26 25.1051 26 24.0005V17.8755M1 21.0005V3.00049C1 1.89592 1.89543 1.00049 3 1.00049H24C25.1046 1.00049 26 1.89592 26 3.00049V17.8755M1 21.0005L5.375 16.0005L11.625 21.6255L19.75 12.2505L26 17.8755" stroke="white" stroke-width="2" stroke-linecap="round" stroke-linejoin="round"/>
<path fill-rule="evenodd" clip-rule="evenodd" d="M10.7728 12.0005C12.279 12.0005 13.5001 10.7693 13.5001 9.25055C13.5001 7.73177 12.279 6.50055 10.7728 6.50055C9.26657 6.50055 8.04553 7.73177 8.04553 9.25055C8.04553 10.7693 9.26657 12.0005 10.7728 12.0005Z" stroke="white" stroke-width="2" stroke-linecap="round" stroke-linejoin="round"/>
</svg>
