<svg width="28" height="28" viewBox="0 0 28 28" fill="none" xmlns="http://www.w3.org/2000/svg">
<g clip-path="url(#clip0_236_10722)">
<path d="M21.9548 0.359375H5.80065C4.37297 0.360953 3.00431 0.928647 1.99491 1.93827C0.985276 2.94767 0.417573 4.31633 0.416016 5.74401V21.8981C0.417593 23.3258 0.985287 24.6945 1.99491 25.7039C3.00431 26.7135 4.37297 27.2812 5.80065 27.2828H21.9548C23.3824 27.2814 24.7511 26.7135 25.7607 25.7041C26.7701 24.6945 27.3381 23.3258 27.3394 21.8981V5.74401C27.338 4.31633 26.7701 2.94767 25.7607 1.93804C24.7511 0.928635 23.3824 0.360702 21.9548 0.359375ZM24.6472 21.898C24.6463 22.6117 24.3623 23.2962 23.8577 23.801C23.3529 24.3056 22.6685 24.5895 21.9548 24.5904H5.80065C5.08692 24.5898 4.40251 24.3058 3.89769 23.801C3.39287 23.2961 3.10891 22.6117 3.10822 21.898V5.74389C3.10889 5.03017 3.39285 4.34575 3.89769 3.84093C4.40253 3.33612 5.08692 3.05215 5.80065 3.05146H21.9548C22.6685 3.05236 23.3529 3.33632 23.8577 3.84093C24.3623 4.34575 24.6463 5.03017 24.6472 5.74389V21.898Z" fill="white"/>
<path d="M13.8781 7.815C12.2852 7.815 10.7577 8.44807 9.63154 9.57441C8.50537 10.7008 7.87282 12.2283 7.87305 13.8212C7.87305 15.414 8.50589 16.9416 9.63223 18.0677C10.7586 19.1938 12.2861 19.8266 13.879 19.8264C15.4718 19.8264 16.9994 19.1936 18.1255 18.0674C19.2518 16.9411 19.8844 15.4136 19.8844 13.8207C19.8826 12.2282 19.2494 10.7017 18.1232 9.57574C16.9971 8.4498 15.4705 7.81661 13.8781 7.815ZM13.8781 17.1342C12.9994 17.134 12.1567 16.7847 11.5354 16.1633C10.9141 15.5418 10.5652 14.6989 10.5652 13.8202C10.5655 12.9416 10.9146 12.0987 11.5361 11.4776C12.1575 10.8562 13.0003 10.5072 13.879 10.5072C14.7576 10.5074 15.6005 10.8565 16.2218 11.4778C16.8431 12.0991 17.1922 12.942 17.1922 13.8207C17.1913 14.6994 16.8418 15.5416 16.2205 16.1629C15.5991 16.7841 14.7567 17.1333 13.878 17.1343L13.8781 17.1342Z" fill="white"/>
</g>
<defs>
<clipPath id="clip0_236_10722">
<rect width="28" height="28" fill="white"/>
</clipPath>
</defs>
</svg>
