<svg width="16" height="21" viewBox="0 0 16 21" fill="none" xmlns="http://www.w3.org/2000/svg">
<path d="M4 8H3C1.89543 8 1 8.89543 1 10V18C1 19.1046 1.89543 20 3 20H13C14.1046 20 15 19.1046 15 18V10C15 8.89543 14.1046 8 13 8H12M4 8V4C4 3 5.2 1 8 1C11 1 12 3 12 4V8M4 8H12" stroke="white" stroke-width="2" stroke-linecap="round" stroke-linejoin="round"/>
<path fill-rule="evenodd" clip-rule="evenodd" d="M8 16C9.10457 16 10 15.1046 10 14C10 12.8954 9.10457 12 8 12C6.89543 12 6 12.8954 6 14C6 15.1046 6.89543 16 8 16Z" stroke="white" stroke-width="2" stroke-linecap="round" stroke-linejoin="round"/>
</svg>
