<svg width="24" height="6" viewBox="0 0 24 6" fill="none" xmlns="http://www.w3.org/2000/svg">
<path fill-rule="evenodd" clip-rule="evenodd" d="M3.11111 4.22222C3.72476 4.22222 4.22222 3.72476 4.22222 3.11111C4.22222 2.49746 3.72476 2 3.11111 2C2.49746 2 2 2.49746 2 3.11111C2 3.72476 2.49746 4.22222 3.11111 4.22222Z" stroke="white" stroke-width="3" stroke-linecap="round" stroke-linejoin="round"/>
<path fill-rule="evenodd" clip-rule="evenodd" d="M11.9999 4.22222C12.6136 4.22222 13.111 3.72476 13.111 3.11111C13.111 2.49746 12.6136 2 11.9999 2C11.3863 2 10.8888 2.49746 10.8888 3.11111C10.8888 3.72476 11.3863 4.22222 11.9999 4.22222Z" stroke="white" stroke-width="3" stroke-linecap="round" stroke-linejoin="round"/>
<path fill-rule="evenodd" clip-rule="evenodd" d="M20.8889 4.22222C21.5026 4.22222 22.0001 3.72476 22.0001 3.11111C22.0001 2.49746 21.5026 2 20.8889 2C20.2753 2 19.7778 2.49746 19.7778 3.11111C19.7778 3.72476 20.2753 4.22222 20.8889 4.22222Z" stroke="white" stroke-width="3" stroke-linecap="round" stroke-linejoin="round"/>
</svg>
