<svg width="25" height="24" viewBox="0 0 25 24" fill="none" xmlns="http://www.w3.org/2000/svg">
<path d="M23.2955 20.0397L23.9736 20.7217L23.2942 20.0397H23.2955ZM7.13545 17.2759L7.81231 16.5939L7.13417 17.2759H7.13545ZM1.8462 3.69769L1.16934 3.01699L1.84748 3.69898L1.8462 3.69769ZM17.1499 16.2042L17.7357 15.6235L16.3782 14.2595L15.7962 14.8402L17.1499 16.2042ZM19.6958 15.3799L22.1456 16.7119L23.0622 15.0223L20.6137 13.6916L19.6958 15.3799ZM22.616 19.3578L20.7957 21.1691L22.1507 22.5318L23.971 20.7217L22.616 19.3578ZM19.6856 21.7511C17.8268 21.9255 13.0195 21.7704 7.81231 16.5939L6.45603 17.9566C12.1375 23.6061 17.546 23.883 19.865 23.6663L19.6843 21.7511H19.6856ZM7.81231 16.5939C2.84995 11.6585 2.02696 7.50887 1.9244 5.70776L0.00406811 5.81673C0.132261 8.08318 1.1514 12.6827 6.45603 17.9566L7.81231 16.5939ZM9.57496 8.67159L9.94288 8.30495L8.58916 6.94226L8.22125 7.30761L9.57625 8.6703L9.57496 8.67159ZM10.2352 3.64513L8.61993 1.48636L7.08033 2.6401L8.69556 4.79759L10.2352 3.64513ZM3.18326 1.01589L1.17063 3.01571L2.52691 4.37968L4.53826 2.37987L3.18326 1.01589ZM8.8981 7.9896C8.21868 7.30761 8.21868 7.30761 8.21868 7.31017H8.21612L8.21227 7.3153C8.15175 7.37708 8.09723 7.44447 8.04947 7.51657C7.98024 7.61912 7.90461 7.75372 7.84051 7.92422C7.68441 8.36433 7.64553 8.83748 7.7277 9.29717C7.89948 10.406 8.66351 11.8713 10.6197 13.8173L11.976 12.4533C10.1441 10.6329 9.70829 9.52535 9.62752 9.00232C9.58907 8.75363 9.62881 8.63056 9.64034 8.60236C9.64675 8.58441 9.64932 8.58313 9.64034 8.59467C9.62904 8.61245 9.61617 8.62918 9.60188 8.64466L9.58907 8.65748C9.58492 8.66147 9.58065 8.66532 9.57625 8.66902L8.89682 7.9896H8.8981ZM10.6197 13.8173C12.5772 15.7632 14.0502 16.5221 15.1603 16.6913C15.7282 16.7785 16.1859 16.7093 16.5333 16.5798C16.7276 16.5079 16.9093 16.4058 17.0717 16.2773C17.0938 16.2588 17.1151 16.2396 17.1358 16.2196L17.1448 16.2119L17.1486 16.2081L17.1499 16.2055C17.1499 16.2055 17.1512 16.2042 16.473 15.5222C15.7936 14.8402 15.7975 14.839 15.7975 14.839L15.8 14.8364L15.8026 14.8338L15.8103 14.8274L15.8231 14.8146C15.8385 14.8008 15.8548 14.7879 15.8718 14.7761C15.8846 14.7672 15.8808 14.771 15.8628 14.7787C15.8308 14.7902 15.7052 14.83 15.4526 14.7915C14.9219 14.7095 13.8066 14.2736 11.976 12.4533L10.6197 13.8173ZM8.61993 1.48508C7.31236 -0.258346 4.74337 -0.535243 3.18326 1.01589L4.53826 2.37987C5.22024 1.70173 6.43039 1.77223 7.08033 2.6401L8.61864 1.48508H8.61993ZM1.92568 5.70904C1.90004 5.26549 2.10387 4.80144 2.52691 4.38096L1.16934 3.01699C0.480947 3.70154 -0.0613104 4.67068 0.00406811 5.81673L1.92568 5.70904ZM20.7957 21.1691C20.4445 21.5204 20.065 21.7178 19.6868 21.7524L19.865 23.6663C20.8072 23.5779 21.5777 23.1036 22.152 22.5331L20.7957 21.1691ZM9.94288 8.30495C11.2056 7.04994 11.2992 5.0668 10.2364 3.64642L8.69684 4.79887C9.21346 5.48983 9.13654 6.39616 8.58788 6.94354L9.94288 8.30495ZM22.1469 16.7131C23.1942 17.2823 23.357 18.6232 22.6173 19.359L23.9736 20.7217C25.6914 19.0129 25.162 16.1632 23.0634 15.0236L22.1469 16.7131ZM17.7357 15.6248C18.228 15.1351 19.0202 15.0146 19.6971 15.3812L20.615 13.6929C19.2253 12.9366 17.5024 13.1455 16.3795 14.2608L17.7357 15.6248Z" fill="white"/>
</svg>
