<svg width="34" height="31" viewBox="0 0 34 31" fill="none" xmlns="http://www.w3.org/2000/svg">
<path d="M26 5.00049H32" stroke="white" stroke-width="3" stroke-linecap="round" stroke-linejoin="round"/>
<path d="M2 5.00049H14" stroke="white" stroke-width="3" stroke-linecap="round" stroke-linejoin="round"/>
<path d="M20 15.5005H32" stroke="white" stroke-width="3" stroke-linecap="round" stroke-linejoin="round"/>
<path d="M2 15.5005H6.5" stroke="white" stroke-width="3" stroke-linecap="round" stroke-linejoin="round"/>
<path d="M26 26.0005H32" stroke="white" stroke-width="3" stroke-linecap="round" stroke-linejoin="round"/>
<path d="M2 26.0005H14" stroke="white" stroke-width="3" stroke-linecap="round" stroke-linejoin="round"/>
<path fill-rule="evenodd" clip-rule="evenodd" d="M23 8.00049C24.6569 8.00049 26 6.65734 26 5.00049C26 3.34363 24.6569 2.00049 23 2.00049C21.3431 2.00049 20 3.34363 20 5.00049C20 6.65734 21.3431 8.00049 23 8.00049Z" stroke="white" stroke-width="3" stroke-linecap="round" stroke-linejoin="round"/>
<path fill-rule="evenodd" clip-rule="evenodd" d="M11 18.5005C12.6569 18.5005 14 17.1573 14 15.5005C14 13.8436 12.6569 12.5005 11 12.5005C9.34315 12.5005 8 13.8436 8 15.5005C8 17.1573 9.34315 18.5005 11 18.5005Z" stroke="white" stroke-width="3" stroke-linecap="round" stroke-linejoin="round"/>
<path fill-rule="evenodd" clip-rule="evenodd" d="M23 29.0005C24.6569 29.0005 26 27.6573 26 26.0005C26 24.3436 24.6569 23.0005 23 23.0005C21.3431 23.0005 20 24.3436 20 26.0005C20 27.6573 21.3431 29.0005 23 29.0005Z" stroke="white" stroke-width="3" stroke-linecap="round" stroke-linejoin="round"/>
</svg>
