<svg width="26" height="25" viewBox="0 0 26 25" fill="none" xmlns="http://www.w3.org/2000/svg">
<path d="M24.2955 20.7765L24.9736 21.4836L24.2942 20.7765H24.2955ZM8.13545 17.9111L8.81231 17.204L8.13417 17.9111H8.13545ZM2.8462 3.83364L2.16934 3.12791L2.84748 3.83497L2.8462 3.83364ZM18.1499 16.8L18.7357 16.1979L17.3782 14.7838L16.7962 15.3858L18.1499 16.8ZM20.6958 15.9454L23.1456 17.3263L24.0622 15.5746L21.6137 14.195L20.6958 15.9454ZM23.616 20.0694L21.7957 21.9474L23.1507 23.3602L24.971 21.4836L23.616 20.0694ZM20.6856 22.5508C18.8268 22.7316 14.0195 22.5707 8.81231 17.204L7.45603 18.6168C13.1375 24.474 18.546 24.761 20.865 24.5364L20.6843 22.5508H20.6856ZM8.81231 17.204C3.84995 12.0871 3.02696 7.78494 2.9244 5.91761L1.00407 6.03058C1.13226 8.38035 2.1514 13.149 7.45603 18.6168L8.81231 17.204ZM10.575 8.99039L10.9429 8.61028L9.58916 7.19749L9.22125 7.57627L10.5762 8.98907L10.575 8.99039ZM11.2352 3.77915L9.61993 1.54101L8.08033 2.73716L9.69556 4.97397L11.2352 3.77915ZM4.18326 1.05324L2.17063 3.12658L3.52691 4.5407L5.53826 2.46736L4.18326 1.05324ZM9.8981 8.28333C9.21868 7.57627 9.21868 7.57627 9.21868 7.57893H9.21612L9.21227 7.58425C9.15175 7.64829 9.09723 7.71816 9.04947 7.79291C8.98024 7.89923 8.90461 8.03879 8.84051 8.21555C8.68441 8.67184 8.64553 9.16239 8.7277 9.63898C8.89948 10.7886 9.66351 12.3077 11.6197 14.3252L12.976 12.9111C11.1441 11.0239 10.7083 9.87555 10.6275 9.33329C10.5891 9.07545 10.6288 8.94786 10.6403 8.91862C10.6468 8.90002 10.6493 8.89869 10.6403 8.91065C10.629 8.92908 10.6162 8.94643 10.6019 8.96248L10.5891 8.97577C10.5849 8.97991 10.5806 8.9839 10.5762 8.98774L9.89682 8.28333H9.8981ZM11.6197 14.3252C13.5772 16.3428 15.0502 17.1296 16.1603 17.305C16.7282 17.3954 17.1859 17.3236 17.5333 17.1894C17.7276 17.1148 17.9093 17.009 18.0717 16.8757C18.0938 16.8566 18.1151 16.8366 18.1358 16.8159L18.1448 16.8079L18.1486 16.8039L18.1499 16.8013C18.1499 16.8013 18.1512 16.8 17.473 16.0929C16.7936 15.3858 16.7975 15.3845 16.7975 15.3845L16.8 15.3818L16.8026 15.3792L16.8103 15.3725L16.8231 15.3593C16.8385 15.3449 16.8548 15.3316 16.8718 15.3194C16.8846 15.3101 16.8808 15.3141 16.8628 15.322C16.8308 15.334 16.7052 15.3752 16.4526 15.3353C15.9219 15.2503 14.8066 14.7984 12.976 12.9111L11.6197 14.3252ZM9.61993 1.53968C8.31236 -0.267844 5.74337 -0.554921 4.18326 1.05324L5.53826 2.46736C6.22024 1.76429 7.43039 1.83739 8.08033 2.73716L9.61864 1.53968H9.61993ZM2.92568 5.91893C2.90004 5.45908 3.10387 4.97796 3.52691 4.54203L2.16934 3.12791C1.48095 3.83763 0.93869 4.8424 1.00407 6.03058L2.92568 5.91893ZM21.7957 21.9474C21.4445 22.3116 21.065 22.5162 20.6868 22.5521L20.865 24.5364C21.8072 24.4447 22.5777 23.953 23.152 23.3615L21.7957 21.9474ZM10.9429 8.61028C12.2056 7.30913 12.2992 5.25308 11.2364 3.78048L9.69684 4.9753C10.2135 5.69167 10.1365 6.63131 9.58788 7.19882L10.9429 8.61028ZM23.1469 17.3276C24.1942 17.9177 24.357 19.3079 23.6173 20.0708L24.9736 21.4836C26.6914 19.7119 26.162 16.7574 24.0634 15.5759L23.1469 17.3276ZM18.7357 16.1992C19.228 15.6915 20.0202 15.5666 20.6971 15.9467L21.615 14.1963C20.2253 13.4122 18.5024 13.6288 17.3795 14.7851L18.7357 16.1992Z" fill="white"/>
</svg>
