<svg width="24" height="24" viewBox="0 0 24 24" fill="none" xmlns="http://www.w3.org/2000/svg">
<path d="M16.2104 16.0973C16.4035 16.2911 16.5349 16.5379 16.588 16.8063C16.641 17.0748 16.6133 17.3529 16.5084 17.6057C16.4034 17.8584 16.226 18.0743 15.9984 18.2263C15.7708 18.3782 15.5033 18.4593 15.2296 18.4593C14.956 18.4593 14.6885 18.3782 14.4609 18.2263C14.2333 18.0743 14.0558 17.8584 13.9509 17.6057C13.8459 17.3529 13.8182 17.0748 13.8713 16.8063C13.9243 16.5379 14.0557 16.2911 14.2488 16.0973C14.3775 15.9682 14.5303 15.8658 14.6986 15.7959C14.8669 15.726 15.0474 15.6901 15.2296 15.6901C15.4119 15.6901 15.5923 15.726 15.7606 15.7959C15.9289 15.8658 16.0818 15.9682 16.2104 16.0973ZM6.86423 15.1742C6.67107 15.3681 6.53968 15.6148 6.48664 15.8832C6.43361 16.1517 6.46131 16.4299 6.56625 16.6826C6.67119 16.9353 6.84866 17.1513 7.07625 17.3032C7.30385 17.4551 7.57136 17.5362 7.845 17.5362C8.11865 17.5362 8.38616 17.4551 8.61375 17.3032C8.84135 17.1513 9.01882 16.9353 9.12376 16.6826C9.2287 16.4299 9.2564 16.1517 9.20336 15.8832C9.15033 15.6148 9.01893 15.3681 8.82577 15.1742C8.69718 15.0455 8.54447 14.9434 8.37638 14.8737C8.20829 14.804 8.02812 14.7681 7.84616 14.7681C7.6642 14.7681 7.48402 14.804 7.31593 14.8737C7.14784 14.9434 6.99514 15.0455 6.86654 15.1742H6.86423ZM7.9027 10.6742C8.09586 10.4804 8.22725 10.2337 8.28029 9.96522C8.33332 9.69676 8.30562 9.4186 8.20068 9.16588C8.09574 8.91315 7.91827 8.69719 7.69068 8.54526C7.46308 8.39333 7.19557 8.31224 6.92193 8.31224C6.64828 8.31224 6.38077 8.39333 6.15318 8.54526C5.92558 8.69719 5.74811 8.91315 5.64317 9.16588C5.53823 9.4186 5.51053 9.69676 5.56357 9.96522C5.6166 10.2337 5.748 10.4804 5.94116 10.6742C6.06994 10.8032 6.22292 10.9054 6.3913 10.9751C6.55969 11.0448 6.74017 11.0805 6.92241 11.0803C7.10464 11.0801 7.28504 11.0439 7.45326 10.9738C7.62148 10.9038 7.77421 10.8012 7.9027 10.6719V10.6742ZM13.4412 10.5588C13.2473 10.3657 13.0006 10.2343 12.7321 10.1813C12.4637 10.1282 12.1855 10.1559 11.9328 10.2609C11.6801 10.3658 11.4641 10.5433 11.3122 10.7709C11.1603 10.9985 11.0792 11.266 11.0792 11.5396C11.0792 11.8133 11.1603 12.0808 11.3122 12.3084C11.4641 12.536 11.6801 12.7134 11.9328 12.8184C12.1855 12.9233 12.4637 12.951 12.7321 12.898C13.0006 12.8449 13.2473 12.7135 13.4412 12.5204C13.5702 12.3917 13.6727 12.2389 13.7425 12.0706C13.8124 11.9023 13.8484 11.7218 13.8484 11.5396C13.8484 11.3574 13.8124 11.1769 13.7425 11.0086C13.6727 10.8403 13.5702 10.6875 13.4412 10.5588ZM24 12C24 14.3734 23.2962 16.6934 21.9776 18.6668C20.6591 20.6402 18.7849 22.1783 16.5922 23.0865C14.3995 23.9948 11.9867 24.2324 9.65892 23.7694C7.33115 23.3064 5.19295 22.1635 3.51472 20.4853C1.83649 18.807 0.693605 16.6689 0.230582 14.3411C-0.232441 12.0133 0.00519941 9.60051 0.913451 7.4078C1.8217 5.21508 3.35977 3.34094 5.33316 2.02236C7.30655 0.703788 9.62663 0 12 0C12.2448 0 12.4796 0.0972524 12.6527 0.270363C12.8258 0.443473 12.9231 0.678262 12.9231 0.923077C12.9231 2.14715 13.4093 3.32109 14.2749 4.18665C15.1404 5.0522 16.3144 5.53846 17.5385 5.53846C17.7833 5.53846 18.0181 5.63571 18.1912 5.80882C18.3643 5.98193 18.4615 6.21672 18.4615 6.46154C18.4615 7.68561 18.9478 8.85955 19.8134 9.72511C20.6789 10.5907 21.8528 11.0769 23.0769 11.0769C23.3217 11.0769 23.5565 11.1742 23.7296 11.3473C23.9027 11.5204 24 11.7552 24 12ZM22.1181 12.8527C20.7356 12.6429 19.4582 11.9913 18.4767 10.9952C17.4953 9.99924 16.8625 8.71234 16.6731 7.32692C15.2877 7.13748 14.0008 6.50474 13.0048 5.52329C12.0087 4.54184 11.3571 3.2644 11.1473 1.88192C9.21857 2.04449 7.37647 2.75495 5.83807 3.92959C4.29966 5.10423 3.12905 6.69411 2.46415 8.51191C1.79925 10.3297 1.66777 12.2997 2.08521 14.1897C2.50264 16.0797 3.4516 17.8111 4.82026 19.1797C6.18892 20.5484 7.92026 21.4974 9.8103 21.9148C11.7003 22.3322 13.6703 22.2007 15.4881 21.5359C17.3059 20.871 18.8958 19.7003 20.0704 18.1619C21.2451 16.6235 21.9555 14.7814 22.1181 12.8527Z" fill="white"/>
</svg>
