<svg width="22" height="22" viewBox="0 0 22 22" fill="none" xmlns="http://www.w3.org/2000/svg">
<path d="M21 14.75C21 16.1391 21 18.9172 21 18.9172C21 20.0675 20.066 21 18.9139 21C18.9139 21 16.138 21 14.75 21" stroke="white" stroke-width="2" stroke-linecap="round" stroke-linejoin="round"/>
<path d="M7.25 21C5.86058 21 3.08175 21 3.08175 21C1.93203 21 1 20.0664 1 18.9148C1 18.9148 1 16.1383 1 14.75" stroke="white" stroke-width="2" stroke-linecap="round" stroke-linejoin="round"/>
<path d="M1 7.25C1 5.86024 1 3.08073 1 3.08073C1 1.93157 1.93103 1 3.0795 1C3.0795 1 5.85983 1 7.25 1" stroke="white" stroke-width="2" stroke-linecap="round" stroke-linejoin="round"/>
<path d="M14.75 1C16.1395 1 18.9186 1 18.9186 1C20.0681 1 21 1.93266 21 3.08316C21 3.08316 21 5.86105 21 7.25" stroke="white" stroke-width="2" stroke-linecap="round" stroke-linejoin="round"/>
</svg>
