<svg width="31" height="30" viewBox="0 0 31 30" fill="none" xmlns="http://www.w3.org/2000/svg">
<path d="M26.8073 15.6888V25.6117C26.8073 26.9818 25.6967 28.0925 24.3266 28.0925H4.48073C3.11066 28.0925 2 26.9818 2 25.6117V5.76589C2 4.39582 3.11066 3.28516 4.48073 3.28516H14.4037" stroke="white" stroke-width="3" stroke-linecap="round" stroke-linejoin="round"/>
<path d="M20.3039 5.03951L13.0848 11.8624C12.6613 12.2628 12.4334 12.8279 12.4608 13.4101L12.6568 17.5676L16.7879 17.7655C17.3653 17.7932 17.9265 17.5697 18.3268 17.1525L25.2262 9.96185M20.3039 5.03951L22.8632 2.62062C24.1991 1.35798 26.2972 1.38756 27.597 2.68737V2.68737C28.9039 3.99421 28.9257 6.10619 27.6461 7.43976L25.2262 9.96185M20.3039 5.03951L25.2262 9.96185" stroke="white" stroke-width="3" stroke-linecap="round" stroke-linejoin="round"/>
</svg>
