<svg width="26" height="26" viewBox="0 0 26 26" fill="none" xmlns="http://www.w3.org/2000/svg">
<g clip-path="url(#clip0_41_648)">
<path d="M20.386 0.333496H5.38576C4.06006 0.334961 2.78916 0.862105 1.85186 1.79961C0.914341 2.73691 0.387189 4.00781 0.385742 5.33351V20.3338C0.387207 21.6595 0.914351 22.9304 1.85186 23.8677C2.78916 24.8052 4.06006 25.3323 5.38576 25.3338H20.386C21.7117 25.3325 22.9826 24.8052 23.9201 23.8679C24.8574 22.9304 25.3848 21.6595 25.386 20.3338V5.33351C25.3848 4.00781 24.8574 2.73691 23.9201 1.7994C22.9826 0.862094 21.7117 0.334728 20.386 0.333496ZM22.8861 20.3337C22.8853 20.9964 22.6216 21.6319 22.153 22.1007C21.6843 22.5692 21.0488 22.8329 20.386 22.8338H5.38576C4.72301 22.8331 4.08748 22.5695 3.61873 22.1007C3.14997 21.6319 2.88629 20.9964 2.88564 20.3337V5.3334C2.88627 4.67066 3.14995 4.03513 3.61873 3.56637C4.08751 3.09761 4.72301 2.83393 5.38576 2.83329H20.386C21.0488 2.83413 21.6843 3.0978 22.153 3.56637C22.6216 4.03513 22.8853 4.67066 22.8861 5.3334V20.3337Z" fill="white" fill-opacity="0.4"/>
<path d="M12.8856 7.25689C11.4066 7.25689 9.98813 7.84474 8.94246 8.89063C7.89672 9.93652 7.30936 11.355 7.30957 12.834C7.30957 14.3131 7.89721 15.7316 8.9431 16.7772C9.98899 17.8229 11.4074 18.4105 12.8865 18.4103C14.3656 18.4103 15.784 17.8227 16.8297 16.777C17.8756 15.7311 18.463 14.3127 18.463 12.8336C18.4613 11.3549 17.8733 9.93738 16.8276 8.89186C15.7819 7.84635 14.3644 7.25839 12.8856 7.25689ZM12.8856 15.9104C12.0697 15.9102 11.2873 15.5859 10.7103 15.0089C10.1334 14.4318 9.80947 13.6491 9.80947 12.8332C9.80968 12.0173 10.1338 11.2346 10.711 10.6579C11.288 10.0809 12.0706 9.75679 12.8865 9.75679C13.7024 9.757 14.4851 10.0812 15.062 10.6581C15.6389 11.235 15.9631 12.0177 15.9631 12.8336C15.9623 13.6495 15.6377 14.4316 15.0607 15.0085C14.4838 15.5853 13.7016 15.9096 12.8856 15.9105L12.8856 15.9104Z" fill="white" fill-opacity="0.4"/>
</g>
<defs>
<clipPath id="clip0_41_648">
<rect width="26" height="26" fill="white"/>
</clipPath>
</defs>
</svg>
