<svg width="28" height="28" viewBox="0 0 28 28" fill="none" xmlns="http://www.w3.org/2000/svg">
<path d="M1.62305 9.69462L6.69717 9.63135V26.2471L1.62305 26.3115V9.69468V9.69462Z" fill="white"/>
<path d="M10.9453 9.69488L15.7938 9.6333V11.7468L15.7949 12.3454C17.2308 10.9375 18.7109 9.87354 21.0757 9.87354C23.8657 9.87354 26.5643 11.0428 26.5643 14.852V26.2508L21.6424 26.3241V17.6161C21.6424 15.6964 21.1614 14.4588 18.8687 14.4588C16.8488 14.4588 16.0032 14.8206 16.0032 17.4783V26.2502L10.9458 26.3112V9.69488H10.9453Z" fill="white"/>
<path d="M6.99076 4.45445C6.99076 5.98848 5.74716 7.23202 4.21318 7.23202C2.6792 7.23202 1.43555 5.98848 1.43555 4.45439C1.43555 2.92035 2.67909 1.67676 4.21318 1.67676C5.74722 1.67676 6.99081 2.9203 6.99081 4.45439L6.99076 4.45445Z" fill="white"/>
</svg>
