<svg width="233" height="150" viewBox="0 0 233 150" fill="none" xmlns="http://www.w3.org/2000/svg">
<path d="M81.1875 84.25V99.375H15.6875L14.625 87.5L51.875 28H67.3125L50.5625 55.75L33.625 84.25H81.1875ZM71.4375 28V119H51.9375V28H71.4375ZM153 65.375V81.5625C153 88.2292 152.25 94 150.75 98.875C149.292 103.75 147.167 107.771 144.375 110.938C141.625 114.104 138.333 116.458 134.5 118C130.708 119.5 126.5 120.25 121.875 120.25C118.167 120.25 114.708 119.771 111.5 118.812C108.292 117.854 105.396 116.375 102.812 114.375C100.271 112.333 98.0833 109.792 96.25 106.75C94.4167 103.708 93 100.083 92 95.875C91.0417 91.6667 90.5625 86.8958 90.5625 81.5625V65.375C90.5625 58.625 91.2917 52.8333 92.75 48C94.25 43.1667 96.3958 39.1667 99.1875 36C101.979 32.8333 105.271 30.5 109.062 29C112.896 27.5 117.125 26.75 121.75 26.75C125.458 26.75 128.896 27.2292 132.062 28.1875C135.271 29.1458 138.167 30.625 140.75 32.625C143.333 34.625 145.521 37.1458 147.312 40.1875C149.146 43.2292 150.542 46.8542 151.5 51.0625C152.5 55.2292 153 60 153 65.375ZM133.5 84V62.8125C133.5 59.6875 133.312 56.9792 132.938 54.6875C132.604 52.3542 132.104 50.375 131.438 48.75C130.812 47.125 130.021 45.8125 129.062 44.8125C128.104 43.8125 127 43.0833 125.75 42.625C124.542 42.125 123.208 41.875 121.75 41.875C119.917 41.875 118.271 42.25 116.812 43C115.354 43.75 114.125 44.9375 113.125 46.5625C112.125 48.1458 111.354 50.2917 110.812 53C110.312 55.6667 110.062 58.9375 110.062 62.8125V84C110.062 87.125 110.229 89.8542 110.562 92.1875C110.938 94.5208 111.438 96.5208 112.062 98.1875C112.729 99.8125 113.542 101.146 114.5 102.188C115.458 103.188 116.562 103.917 117.812 104.375C119.062 104.833 120.417 105.062 121.875 105.062C123.708 105.062 125.333 104.708 126.75 104C128.167 103.25 129.375 102.062 130.375 100.438C131.417 98.7708 132.188 96.5833 132.688 93.875C133.229 91.1667 133.5 87.875 133.5 84ZM228.938 84.25V99.375H163.438L162.375 87.5L199.625 28H215.062L198.312 55.75L181.375 84.25H228.938ZM219.188 28V119H199.688V28H219.188Z" fill="#8406E3"/>
<path d="M70.1875 84.25V99.375H4.6875L3.625 87.5L40.875 28H56.3125L39.5625 55.75L22.625 84.25H70.1875ZM60.4375 28V119H40.9375V28H60.4375ZM142 65.375V81.5625C142 88.2292 141.25 94 139.75 98.875C138.292 103.75 136.167 107.771 133.375 110.938C130.625 114.104 127.333 116.458 123.5 118C119.708 119.5 115.5 120.25 110.875 120.25C107.167 120.25 103.708 119.771 100.5 118.812C97.2917 117.854 94.3958 116.375 91.8125 114.375C89.2708 112.333 87.0833 109.792 85.25 106.75C83.4167 103.708 82 100.083 81 95.875C80.0417 91.6667 79.5625 86.8958 79.5625 81.5625V65.375C79.5625 58.625 80.2917 52.8333 81.75 48C83.25 43.1667 85.3958 39.1667 88.1875 36C90.9792 32.8333 94.2708 30.5 98.0625 29C101.896 27.5 106.125 26.75 110.75 26.75C114.458 26.75 117.896 27.2292 121.062 28.1875C124.271 29.1458 127.167 30.625 129.75 32.625C132.333 34.625 134.521 37.1458 136.312 40.1875C138.146 43.2292 139.542 46.8542 140.5 51.0625C141.5 55.2292 142 60 142 65.375ZM122.5 84V62.8125C122.5 59.6875 122.312 56.9792 121.938 54.6875C121.604 52.3542 121.104 50.375 120.438 48.75C119.812 47.125 119.021 45.8125 118.062 44.8125C117.104 43.8125 116 43.0833 114.75 42.625C113.542 42.125 112.208 41.875 110.75 41.875C108.917 41.875 107.271 42.25 105.812 43C104.354 43.75 103.125 44.9375 102.125 46.5625C101.125 48.1458 100.354 50.2917 99.8125 53C99.3125 55.6667 99.0625 58.9375 99.0625 62.8125V84C99.0625 87.125 99.2292 89.8542 99.5625 92.1875C99.9375 94.5208 100.438 96.5208 101.062 98.1875C101.729 99.8125 102.542 101.146 103.5 102.188C104.458 103.188 105.562 103.917 106.812 104.375C108.062 104.833 109.417 105.062 110.875 105.062C112.708 105.062 114.333 104.708 115.75 104C117.167 103.25 118.375 102.062 119.375 100.438C120.417 98.7708 121.188 96.5833 121.688 93.875C122.229 91.1667 122.5 87.875 122.5 84ZM217.938 84.25V99.375H152.438L151.375 87.5L188.625 28H204.062L187.312 55.75L170.375 84.25H217.938ZM208.188 28V119H188.688V28H208.188Z" fill="#F07B2C"/>
<path d="M74.1875 84.25V99.375H8.6875L7.625 87.5L44.875 28H60.3125L43.5625 55.75L26.625 84.25H74.1875ZM64.4375 28V119H44.9375V28H64.4375ZM146 65.375V81.5625C146 88.2292 145.25 94 143.75 98.875C142.292 103.75 140.167 107.771 137.375 110.938C134.625 114.104 131.333 116.458 127.5 118C123.708 119.5 119.5 120.25 114.875 120.25C111.167 120.25 107.708 119.771 104.5 118.812C101.292 117.854 98.3958 116.375 95.8125 114.375C93.2708 112.333 91.0833 109.792 89.25 106.75C87.4167 103.708 86 100.083 85 95.875C84.0417 91.6667 83.5625 86.8958 83.5625 81.5625V65.375C83.5625 58.625 84.2917 52.8333 85.75 48C87.25 43.1667 89.3958 39.1667 92.1875 36C94.9792 32.8333 98.2708 30.5 102.062 29C105.896 27.5 110.125 26.75 114.75 26.75C118.458 26.75 121.896 27.2292 125.062 28.1875C128.271 29.1458 131.167 30.625 133.75 32.625C136.333 34.625 138.521 37.1458 140.312 40.1875C142.146 43.2292 143.542 46.8542 144.5 51.0625C145.5 55.2292 146 60 146 65.375ZM126.5 84V62.8125C126.5 59.6875 126.312 56.9792 125.938 54.6875C125.604 52.3542 125.104 50.375 124.438 48.75C123.812 47.125 123.021 45.8125 122.062 44.8125C121.104 43.8125 120 43.0833 118.75 42.625C117.542 42.125 116.208 41.875 114.75 41.875C112.917 41.875 111.271 42.25 109.812 43C108.354 43.75 107.125 44.9375 106.125 46.5625C105.125 48.1458 104.354 50.2917 103.812 53C103.312 55.6667 103.062 58.9375 103.062 62.8125V84C103.062 87.125 103.229 89.8542 103.562 92.1875C103.938 94.5208 104.438 96.5208 105.062 98.1875C105.729 99.8125 106.542 101.146 107.5 102.188C108.458 103.188 109.562 103.917 110.812 104.375C112.062 104.833 113.417 105.062 114.875 105.062C116.708 105.062 118.333 104.708 119.75 104C121.167 103.25 122.375 102.062 123.375 100.438C124.417 98.7708 125.188 96.5833 125.688 93.875C126.229 91.1667 126.5 87.875 126.5 84ZM221.938 84.25V99.375H156.438L155.375 87.5L192.625 28H208.062L191.312 55.75L174.375 84.25H221.938ZM212.188 28V119H192.688V28H212.188Z" fill="white"/>
</svg>
